<svg width="24" height="18" viewBox="0 0 24 18" fill="none" xmlns="http://www.w3.org/2000/svg">
<g id="Group">
<g id="Group_2">
<path id="Vector" fill-rule="evenodd" clip-rule="evenodd" d="M16.2857 0C14.2226 0 12.4869 1.5534 12.0874 3.6H0.857143C0.629814 3.6 0.411797 3.69482 0.251051 3.8636C0.0903058 4.03239 0 4.2613 0 4.5C0 4.73869 0.0903058 4.96761 0.251051 5.1364C0.411797 5.30518 0.629814 5.4 0.857143 5.4H12.0874C12.4869 7.4475 14.2217 9 16.2857 9C18.3497 9 20.0846 7.4475 20.484 5.4H23.1429C23.3702 5.4 23.5882 5.30518 23.7489 5.1364C23.9097 4.96761 24 4.73869 24 4.5C24 4.2613 23.9097 4.03239 23.7489 3.8636C23.5882 3.69482 23.3702 3.6 23.1429 3.6H20.484C20.0846 1.5534 18.3497 0 16.2857 0ZM16.2857 1.8C17.7163 1.8 18.8571 2.9979 18.8571 4.5C18.8571 6.0021 17.7163 7.2 16.2857 7.2C14.8551 7.2 13.7143 6.0021 13.7143 4.5C13.7143 2.9979 14.8551 1.8 16.2857 1.8ZM7.71429 9C5.65114 9 3.91543 10.5534 3.516 12.6H0.857143C0.629814 12.6 0.411797 12.6948 0.251051 12.8636C0.0903058 13.0324 0 13.2613 0 13.5C0 13.7387 0.0903058 13.9676 0.251051 14.1364C0.411797 14.3052 0.629814 14.4 0.857143 14.4H3.516C3.91543 16.4475 5.65029 18 7.71429 18C9.77829 18 11.5131 16.4475 11.9126 14.4H23.1429C23.3702 14.4 23.5882 14.3052 23.7489 14.1364C23.9097 13.9676 24 13.7387 24 13.5C24 13.2613 23.9097 13.0324 23.7489 12.8636C23.5882 12.6948 23.3702 12.6 23.1429 12.6H11.9126C11.5131 10.5534 9.77829 9 7.71429 9ZM7.71429 10.8C9.14486 10.8 10.2857 11.9979 10.2857 13.5C10.2857 15.0021 9.14486 16.2 7.71429 16.2C6.28371 16.2 5.14286 15.0021 5.14286 13.5C5.14286 11.9979 6.28371 10.8 7.71429 10.8Z" fill="url(#paint0_linear_2183_664)"/>
</g>
</g>
<defs>
<linearGradient id="paint0_linear_2183_664" x1="-0.643216" y1="2.83929" x2="24.4601" y2="4.22986" gradientUnits="userSpaceOnUse">
<stop stop-color="#C09E6C"/>
<stop offset="0.426246" stop-color="#FFEBCC"/>
<stop offset="1" stop-color="#BF936B"/>
</linearGradient>
</defs>
</svg>
