<svg width="20" height="24" viewBox="0 0 20 24" fill="none" xmlns="http://www.w3.org/2000/svg">
<path d="M9.75168 23.4137L9.75113 23.4132C7.64087 21.6054 4.73723 18.7124 2.75793 15.5518L2.75788 15.5517C1.3918 13.3712 0.5 11.1073 0.5 9.00366C0.5 4.38861 4.73965 0.5 10 0.5C15.2603 0.5 19.5 4.38861 19.5 9.00366C19.5 11.1073 18.6082 13.3705 17.2421 15.5518L17.2421 15.5518C15.2628 18.7124 12.3591 21.6054 10.2489 23.4132L10.2483 23.4137C10.189 23.4647 10.1006 23.5 10 23.5C9.89942 23.5 9.81103 23.4647 9.75168 23.4137ZM9.66725 22.577L10 22.8736L10.3327 22.577C12.3201 20.805 14.8488 18.2009 16.6379 15.3451C17.8998 13.3313 18.8333 11.1391 18.8333 9.00366C18.8333 4.56327 14.7972 1.00061 10 1.00061C5.20285 1.00061 1.16667 4.56327 1.16667 9.00366C1.16667 11.139 2.10022 13.3312 3.36211 15.3451C5.15113 18.2008 7.67987 20.805 9.66725 22.577Z" stroke="#645C4F"/>
<path d="M10 4C9.01109 4 8.0444 4.29324 7.22215 4.84265C6.39991 5.39206 5.75904 6.17295 5.3806 7.08658C5.00217 8.00021 4.90315 9.00555 5.09608 9.97545C5.289 10.9454 5.76521 11.8363 6.46447 12.5355C7.16373 13.2348 8.05465 13.711 9.02455 13.9039C9.99445 14.0969 10.9998 13.9978 11.9134 13.6194C12.827 13.241 13.6079 12.6001 14.1573 11.7779C14.7068 10.9556 15 9.98891 15 9C14.9996 7.67405 14.4726 6.40254 13.535 5.46495C12.5975 4.52737 11.3259 4.00044 10 4ZM12.9633 8.38C12.9444 8.40527 12.9197 8.4257 12.8913 8.4396C12.8629 8.45351 12.8316 8.4605 12.8 8.46C12.758 8.46171 12.7168 8.44875 12.6833 8.42333L12.3067 8.14667V11.8C12.3065 11.853 12.2854 11.9038 12.2479 11.9412C12.2104 11.9787 12.1597 11.9998 12.1067 12H10.81C10.757 11.9998 10.7062 11.9787 10.6688 11.9412C10.6313 11.9038 10.6102 11.853 10.61 11.8V10.6733C10.6101 10.5123 10.5466 10.3578 10.4333 10.2433C10.3179 10.129 10.1624 10.0644 10 10.0633C9.83841 10.0639 9.68361 10.1284 9.56934 10.2427C9.45508 10.3569 9.39062 10.5117 9.39 10.6733V11.8C9.38983 11.853 9.3687 11.9038 9.33123 11.9412C9.29376 11.9787 9.24299 11.9998 9.19 12H7.89333C7.84035 11.9998 7.78958 11.9787 7.75211 11.9412C7.71464 11.9038 7.69351 11.853 7.69333 11.8V8.14667L7.31667 8.42333C7.2955 8.43905 7.27143 8.4504 7.24584 8.45673C7.22025 8.46306 7.19366 8.46425 7.16761 8.46021C7.14156 8.45618 7.11657 8.44701 7.09409 8.43324C7.07161 8.41947 7.05209 8.40138 7.03667 8.38C7.00615 8.33654 6.99393 8.28283 7.00266 8.23044C7.01139 8.17806 7.04037 8.13121 7.08334 8.1L9.88333 6.04C9.91669 6.01405 9.95774 5.99996 10 5.99996C10.0423 5.99996 10.0833 6.01405 10.1167 6.04L12.9167 8.1C12.9596 8.13121 12.9886 8.17806 12.9973 8.23044C13.0061 8.28283 12.9939 8.33654 12.9633 8.38Z" fill="#645C4F"/>
</svg>
