<svg width="24" height="24" viewBox="0 0 24 24" fill="none" xmlns="http://www.w3.org/2000/svg">
<path d="M19.7064 0H4.29356C1.92609 0 0 1.92609 0 4.29356V19.7065C0 22.0739 1.92609 24 4.29356 24H19.7065C22.0739 24 24 22.0739 24 19.7064V4.29356C24 1.92609 22.0739 0 19.7064 0ZM22.5938 19.7064C22.5938 21.2985 21.2985 22.5938 19.7064 22.5938H4.29356C2.7015 22.5938 1.40625 21.2985 1.40625 19.7064V4.29356C1.40625 2.7015 2.7015 1.40625 4.29356 1.40625H19.7065C21.2985 1.40625 22.5938 2.7015 22.5938 4.29356V19.7064Z" fill="url(#paint0_linear_2001_1780)"/>
<path d="M20.2844 5.27186H9.57525C9.28083 4.39741 8.45372 3.76562 7.48125 3.76562C6.50878 3.76562 5.68167 4.39741 5.38725 5.27186H3.71564C3.32732 5.27186 3.01251 5.58667 3.01251 5.97498C3.01251 6.3633 3.32732 6.67811 3.71564 6.67811H5.38729C5.68172 7.55256 6.50882 8.18434 7.48129 8.18434C8.45376 8.18434 9.28087 7.55256 9.57529 6.67811H20.2844C20.6727 6.67811 20.9875 6.3633 20.9875 5.97498C20.9875 5.58667 20.6727 5.27186 20.2844 5.27186ZM7.48125 6.77809C7.03842 6.77809 6.67814 6.41781 6.67814 5.97498C6.67814 5.53216 7.03842 5.17188 7.48125 5.17188C7.92408 5.17188 8.28436 5.53216 8.28436 5.97498C8.28436 6.41781 7.92408 6.77809 7.48125 6.77809ZM20.2844 11.2968H18.6127C18.3183 10.4224 17.4911 9.79061 16.5187 9.79061C15.5463 9.79061 14.7192 10.4224 14.4247 11.2968H3.71564C3.32732 11.2968 3.01251 11.6117 3.01251 12C3.01251 12.3883 3.32732 12.7031 3.71564 12.7031H14.4247C14.7192 13.5775 15.5463 14.2093 16.5187 14.2093C17.4912 14.2093 18.3183 13.5775 18.6127 12.7031H20.2844C20.6727 12.7031 20.9875 12.3883 20.9875 12C20.9875 11.6117 20.6727 11.2968 20.2844 11.2968ZM16.5187 12.8031C16.0759 12.8031 15.7156 12.4428 15.7156 12C15.7156 11.5571 16.0759 11.1969 16.5187 11.1969C16.9616 11.1969 17.3219 11.5571 17.3219 12C17.3219 12.4428 16.9616 12.8031 16.5187 12.8031ZM20.2844 17.3218H12.5878C12.2933 16.4474 11.4662 15.8156 10.4938 15.8156C9.52129 15.8156 8.69418 16.4474 8.39976 17.3218H3.71564C3.32732 17.3218 3.01251 17.6366 3.01251 18.025C3.01251 18.4133 3.32732 18.7281 3.71564 18.7281H8.39976C8.69418 19.6025 9.52129 20.2343 10.4938 20.2343C11.4662 20.2343 12.2933 19.6025 12.5878 18.7281H20.2844C20.6727 18.7281 20.9875 18.4133 20.9875 18.025C20.9875 17.6366 20.6727 17.3218 20.2844 17.3218ZM10.4938 18.8281C10.0509 18.8281 9.69065 18.4678 9.69065 18.025C9.69065 17.5822 10.0509 17.2219 10.4938 17.2219C10.9366 17.2219 11.2969 17.5821 11.2969 18.025C11.2969 18.4678 10.9366 18.8281 10.4938 18.8281Z" fill="url(#paint1_linear_2001_1780)"/>
<defs>
<linearGradient id="paint0_linear_2001_1780" x1="-0.643216" y1="3.78572" x2="24.4937" y2="4.83004" gradientUnits="userSpaceOnUse">
<stop stop-color="#C09E6C"/>
<stop offset="0.426246" stop-color="#FFEBCC"/>
<stop offset="1" stop-color="#BF936B"/>
</linearGradient>
<linearGradient id="paint1_linear_2001_1780" x1="2.53077" y1="6.36337" x2="21.3511" y2="7.21678" gradientUnits="userSpaceOnUse">
<stop stop-color="#C09E6C"/>
<stop offset="0.426246" stop-color="#FFEBCC"/>
<stop offset="1" stop-color="#BF936B"/>
</linearGradient>
</defs>
</svg>
