<svg width="24" height="24" viewBox="0 0 24 24" fill="none" xmlns="http://www.w3.org/2000/svg">
<path d="M9.88 9.88281C9.58526 10.1575 9.34885 10.4887 9.18488 10.8567C9.02091 11.2247 8.93274 11.6219 8.92564 12.0247C8.91853 12.4275 8.99263 12.8276 9.14351 13.2012C9.2944 13.5748 9.51898 13.9141 9.80385 14.199C10.0887 14.4838 10.4281 14.7084 10.8016 14.8593C11.1752 15.0102 11.5753 15.0843 11.9781 15.0772C12.3809 15.0701 12.7782 14.9819 13.1462 14.8179C13.5142 14.654 13.8454 14.4176 14.12 14.1228" stroke="#BEAE97" stroke-width="2" stroke-linecap="round" stroke-linejoin="round"/>
<path d="M10.73 5.08C11.1513 5.02751 11.5754 5.00079 12 5C19 5 22 12 22 12C21.5529 12.9571 20.9922 13.8569 20.33 14.68" stroke="#BEAE97" stroke-width="2" stroke-linecap="round" stroke-linejoin="round"/>
<path d="M6.61 6.60938C4.62125 7.964 3.02987 9.82463 2 11.9994C2 11.9994 5 18.9994 12 18.9994C13.9159 19.0045 15.7908 18.4445 17.39 17.3894" stroke="#BEAE97" stroke-width="2" stroke-linecap="round" stroke-linejoin="round"/>
<path d="M2 2L22 22" stroke="#BEAE97" stroke-width="2" stroke-linecap="round" stroke-linejoin="round"/>
</svg>
